<?xml version="1.0" encoding="utf-8"?>
<!-- created with dmn-js / http://bpmn.io -->
<!DOCTYPE svg PUBLIC "-//W3C//DTD SVG 1.1//EN" "http://www.w3.org/Graphics/SVG/1.1/DTD/svg11.dtd">
<svg xmlns="http://www.w3.org/2000/svg" xmlns:xlink="http://www.w3.org/1999/xlink" width="645" height="485" viewBox="52 55 645 485" version="1.1"><defs><pattern id="djs-grid-pattern-18815" width="10" height="10" patternUnits="userSpaceOnUse"><circle cx="0.5" cy="0.5" r="0.5" style="fill: rgb(204, 204, 204);"></circle></pattern><marker id="information-requirement-end-white-hsl_225_10_15_-ebjdm7fizqj4ezss3fo8rus2x" viewBox="0 0 20 20" refX="11" refY="10" markerWidth="20" markerHeight="20" orient="auto"><path d="M 1 5 L 11 10 L 1 15 Z" style="stroke-width: 1px; stroke-linecap: round; stroke-dasharray: 10000, 1; fill: rgb(34, 36, 42); stroke: none;"></path></marker></defs><g class="djs-group"><g class="djs-element djs-shape" data-element-id="id_customer_data" style="display: block;" transform="matrix(1 0 0 1 57 490)"><g class="djs-visual"><rect x="0" y="0" width="125" height="45" rx="22" ry="22" style="stroke: rgb(34, 36, 42); stroke-width: 2px; fill: white;"/><text lineHeight="1.2" class="djs-label" style="font-family: Arial, sans-serif; font-size: 12px; font-weight: normal; fill: rgb(34, 36, 42);"><tspan x="22.15234375" y="26.1">Customer Data</tspan></text></g><rect class="djs-hit djs-hit-all" x="0" y="0" width="125" height="45" style="fill: none; stroke-opacity: 0; stroke: white; stroke-width: 15px;"/><rect x="-5" y="-5" rx="27" width="135" height="55" class="djs-outline" style="fill: none;"/></g></g><g class="djs-group"><g class="djs-element djs-shape" data-element-id="id_control_indicators" style="display: block;" transform="matrix(1 0 0 1 227 490)"><g class="djs-visual"><rect x="0" y="0" width="125" height="45" rx="22" ry="22" style="stroke: rgb(34, 36, 42); stroke-width: 2px; fill: white;"/><text lineHeight="1.2" class="djs-label" style="font-family: Arial, sans-serif; font-size: 12px; font-weight: normal; fill: rgb(34, 36, 42);"><tspan x="15.4765625" y="26.1">Control Indicators</tspan></text></g><rect class="djs-hit djs-hit-all" x="0" y="0" width="125" height="45" style="fill: none; stroke-opacity: 0; stroke: white; stroke-width: 15px;"/><rect x="-5" y="-5" rx="27" width="135" height="55" class="djs-outline" style="fill: none;"/></g></g><g class="djs-group"><g class="djs-element djs-shape" data-element-id="id_risk_factors" style="display: block;" transform="matrix(1 0 0 1 397 490)"><g class="djs-visual"><rect x="0" y="0" width="125" height="45" rx="22" ry="22" style="stroke: rgb(34, 36, 42); stroke-width: 2px; fill: white;"/><text lineHeight="1.2" class="djs-label" style="font-family: Arial, sans-serif; font-size: 12px; font-weight: normal; fill: rgb(34, 36, 42);"><tspan x="29.16015625" y="26.1">Risk Factors</tspan></text></g><rect class="djs-hit djs-hit-all" x="0" y="0" width="125" height="45" style="fill: none; stroke-opacity: 0; stroke: white; stroke-width: 15px;"/><rect x="-5" y="-5" rx="27" width="135" height="55" class="djs-outline" style="fill: none;"/></g></g><g class="djs-group"><g class="djs-element djs-shape" data-element-id="id_relationship_data" style="display: block;" transform="matrix(1 0 0 1 567 490)"><g class="djs-visual"><rect x="0" y="0" width="125" height="45" rx="22" ry="22" style="stroke: rgb(34, 36, 42); stroke-width: 2px; fill: white;"/><text lineHeight="1.2" class="djs-label" style="font-family: Arial, sans-serif; font-size: 12px; font-weight: normal; fill: rgb(34, 36, 42);"><tspan x="15.13671875" y="26.1">Relationship Data</tspan></text></g><rect class="djs-hit djs-hit-all" x="0" y="0" width="125" height="45" style="fill: none; stroke-opacity: 0; stroke: white; stroke-width: 15px;"/><rect x="-5" y="-5" rx="27" width="135" height="55" class="djs-outline" style="fill: none;"/></g></g><g class="djs-group"><g class="djs-element djs-shape" data-element-id="bo_assessment" style="display: block;" transform="matrix(1 0 0 1 100 340)"><g class="djs-visual"><rect x="0" y="0" width="180" height="80" rx="0" ry="0" style="stroke: rgb(34, 36, 42); stroke-width: 2px; fill: white;"/><text lineHeight="1.2" class="djs-label" style="font-family: Arial, sans-serif; font-size: 12px; font-weight: normal; fill: rgb(34, 36, 42);"><tspan x="33.63671875" y="36.4">Beneficial Ownership </tspan><tspan x="57.3291015625" y="50.8">Assessment</tspan></text></g><rect class="djs-hit djs-hit-all" x="0" y="0" width="180" height="80" style="fill: none; stroke-opacity: 0; stroke: white; stroke-width: 15px;"/><rect x="-5" y="-5" rx="4" width="190" height="90" class="djs-outline" style="fill: none;"/></g></g><g class="djs-group"><g class="djs-element djs-shape" data-element-id="risk_tier_classification" style="display: block;" transform="matrix(1 0 0 1 270 200)"><g class="djs-visual"><rect x="0" y="0" width="180" height="80" rx="0" ry="0" style="stroke: rgb(34, 36, 42); stroke-width: 2px; fill: white;"/><text lineHeight="1.2" class="djs-label" style="font-family: Arial, sans-serif; font-size: 12px; font-weight: normal; fill: rgb(34, 36, 42);"><tspan x="29.6484375" y="43.599999999999994">Risk Tier Classification</tspan></text></g><rect class="djs-hit djs-hit-all" x="0" y="0" width="180" height="80" style="fill: none; stroke-opacity: 0; stroke: white; stroke-width: 15px;"/><rect x="-5" y="-5" rx="4" width="190" height="90" class="djs-outline" style="fill: none;"/></g></g><g class="djs-group"><g class="djs-element djs-shape" data-element-id="edd_requirements" style="display: block;" transform="matrix(1 0 0 1 270 60)"><g class="djs-visual"><rect x="0" y="0" width="180" height="80" rx="0" ry="0" style="stroke: rgb(34, 36, 42); stroke-width: 2px; fill: white;"/><text lineHeight="1.2" class="djs-label" style="font-family: Arial, sans-serif; font-size: 12px; font-weight: normal; fill: rgb(34, 36, 42);"><tspan x="38.3125" y="36.4">EDD Requirements </tspan><tspan x="52.6484375" y="50.8">Determination</tspan></text></g><rect class="djs-hit djs-hit-all" x="0" y="0" width="180" height="80" style="fill: none; stroke-opacity: 0; stroke: white; stroke-width: 15px;"/><rect x="-5" y="-5" rx="4" width="190" height="90" class="djs-outline" style="fill: none;"/></g></g><g class="djs-group"><g class="djs-element djs-connection" data-element-id="ir_customer_data" style="display: block;"><g class="djs-visual"><path style="fill: none; stroke: rgb(34, 36, 42); stroke-width: 1px; stroke-linecap: round; stroke-linejoin: round; marker-end: url('#information-requirement-end-white-hsl_225_10_15_-ebjdm7fizqj4ezss3fo8rus2x');" d="M119,490L160,420"/></g><path d="M119,490L160,420" class="djs-hit djs-hit-stroke" style="fill: none; stroke-opacity: 0; stroke: white; stroke-width: 15px;"/><rect x="114" y="415" rx="4" width="51" height="80" class="djs-outline" style="fill: none;"/></g></g><g class="djs-group"><g class="djs-element djs-connection" data-element-id="ir_control_indicators" style="display: block;"><g class="djs-visual"><path style="fill: none; stroke: rgb(34, 36, 42); stroke-width: 1px; stroke-linecap: round; stroke-linejoin: round; marker-end: url('#information-requirement-end-white-hsl_225_10_15_-ebjdm7fizqj4ezss3fo8rus2x');" d="M289,490L220,420"/></g><path d="M289,490L220,420" class="djs-hit djs-hit-stroke" style="fill: none; stroke-opacity: 0; stroke: white; stroke-width: 15px;"/><rect x="215" y="415" rx="4" width="79" height="80" class="djs-outline" style="fill: none;"/></g></g><g class="djs-group"><g class="djs-element djs-connection" data-element-id="ir_from_bo_assessment" style="display: block;"><g class="djs-visual"><path style="fill: none; stroke: rgb(34, 36, 42); stroke-width: 1px; stroke-linecap: round; stroke-linejoin: round; marker-end: url('#information-requirement-end-white-hsl_225_10_15_-ebjdm7fizqj4ezss3fo8rus2x');" d="M220,340L310,280"/></g><path d="M220,340L310,280" class="djs-hit djs-hit-stroke" style="fill: none; stroke-opacity: 0; stroke: white; stroke-width: 15px;"/><rect x="215" y="275" rx="4" width="100" height="70" class="djs-outline" style="fill: none;"/></g></g><g class="djs-group"><g class="djs-element djs-connection" data-element-id="ir_risk_factors" style="display: block;"><g class="djs-visual"><path style="fill: none; stroke: rgb(34, 36, 42); stroke-width: 1px; stroke-linecap: round; stroke-linejoin: round; marker-end: url('#information-requirement-end-white-hsl_225_10_15_-ebjdm7fizqj4ezss3fo8rus2x');" d="M459,490L400,280"/></g><path d="M459,490L400,280" class="djs-hit djs-hit-stroke" style="fill: none; stroke-opacity: 0; stroke: white; stroke-width: 15px;"/><rect x="395" y="275" rx="4" width="69" height="220" class="djs-outline" style="fill: none;"/></g></g><g class="djs-group"><g class="djs-element djs-connection" data-element-id="ir_from_risk_tier" style="display: block;"><g class="djs-visual"><path style="fill: none; stroke: rgb(34, 36, 42); stroke-width: 1px; stroke-linecap: round; stroke-linejoin: round; marker-end: url('#information-requirement-end-white-hsl_225_10_15_-ebjdm7fizqj4ezss3fo8rus2x');" d="M360,200L360,140"/></g><path d="M360,200L360,140" class="djs-hit djs-hit-stroke" style="fill: none; stroke-opacity: 0; stroke: white; stroke-width: 15px;"/><rect x="355" y="135" rx="4" width="10" height="70" class="djs-outline" style="fill: none;"/></g></g><g class="djs-group"><g class="djs-element djs-connection" data-element-id="ir_relationship_data" style="display: block;"><g class="djs-visual"><path style="fill: none; stroke: rgb(34, 36, 42); stroke-width: 1px; stroke-linecap: round; stroke-linejoin: round; marker-end: url('#information-requirement-end-white-hsl_225_10_15_-ebjdm7fizqj4ezss3fo8rus2x');" d="M629,490L450,100"/></g><path d="M629,490L450,100" class="djs-hit djs-hit-stroke" style="fill: none; stroke-opacity: 0; stroke: white; stroke-width: 15px;"/><rect x="445" y="95" rx="4" width="189" height="400" class="djs-outline" style="fill: none;"/></g></g></svg>